<svg xmlns="http://www.w3.org/2000/svg" width="1200" height="1200" viewBox="0 0 1200 1200">
  <defs>
    <linearGradient id="bg" x1="0%" y1="0%" x2="0%" y2="100%">
      <stop offset="0%" stop-color="#06070a"/>
      <stop offset="55%" stop-color="#0d1016"/>
      <stop offset="100%" stop-color="#000000"/>
    </linearGradient>
    <linearGradient id="horizon" x1="0%" y1="0%" x2="100%" y2="0%">
      <stop offset="0%" stop-color="#2563eb" stop-opacity="0.5"/>
      <stop offset="50%" stop-color="#d9b26a" stop-opacity="0.45"/>
      <stop offset="100%" stop-color="#2563eb" stop-opacity="0.5"/>
    </linearGradient>
    <radialGradient id="glow" cx="50%" cy="52%" r="45%">
      <stop offset="0%" stop-color="#d9b26a" stop-opacity="0.3"/>
      <stop offset="100%" stop-color="#d9b26a" stop-opacity="0"/>
    </radialGradient>
    <linearGradient id="vignette" x1="0%" y1="0%" x2="0%" y2="100%">
      <stop offset="0%" stop-color="#000000" stop-opacity="0.45"/>
      <stop offset="30%" stop-color="#000000" stop-opacity="0"/>
      <stop offset="75%" stop-color="#000000" stop-opacity="0"/>
      <stop offset="100%" stop-color="#000000" stop-opacity="0.6"/>
    </linearGradient>
  </defs>
  <rect width="1200" height="1200" fill="url(#bg)"/>
  <circle cx="600" cy="640" r="480" fill="url(#glow)"/>
  <rect x="0" y="636" width="1200" height="6" fill="url(#horizon)"/>
  <g fill="#f3e3c4" fill-opacity="0.75">
    <rect x="120" y="560" width="34" height="24" rx="3"/>
    <rect x="200" y="560" width="34" height="24" rx="3"/>
    <rect x="280" y="560" width="34" height="24" rx="3"/>
    <rect x="360" y="560" width="34" height="24" rx="3"/>
    <rect x="440" y="560" width="34" height="24" rx="3"/>
    <rect x="520" y="560" width="34" height="24" rx="3"/>
    <rect x="600" y="560" width="34" height="24" rx="3"/>
    <rect x="680" y="560" width="34" height="24" rx="3"/>
    <rect x="760" y="560" width="34" height="24" rx="3"/>
    <rect x="840" y="560" width="34" height="24" rx="3"/>
    <rect x="920" y="560" width="34" height="24" rx="3"/>
    <rect x="1000" y="560" width="34" height="24" rx="3"/>
  </g>
  <rect width="1200" height="1200" fill="url(#vignette)"/>
</svg>
